<svg width="25" height="26" viewBox="0 0 25 26" fill="none" xmlns="http://www.w3.org/2000/svg">
<circle cx="12.5" cy="12.9531" r="11.5" fill="#EF8E31"/>
<path d="M12.5 0.453125C5.59648 0.453125 0 6.04961 0 12.9531C0 19.857 5.59648 25.4531 12.5 25.4531C19.4039 25.4531 25 19.857 25 12.9531C25 6.04961 19.4039 0.453125 12.5 0.453125ZM12.5 23.9152C6.46914 23.9152 1.5625 18.984 1.5625 12.9531C1.5625 6.92222 6.46914 2.01558 12.5 2.01558C18.5309 2.01558 23.4375 6.92224 23.4375 12.9531C23.4375 18.9839 18.5309 23.9152 12.5 23.9152ZM17.4887 8.3793L10.1547 15.7594L6.85193 12.4566C6.54685 12.1516 6.05232 12.1516 5.74685 12.4566C5.44177 12.7617 5.44177 13.2562 5.74685 13.5613L9.61365 17.4285C9.91873 17.7332 10.4133 17.7332 10.7187 17.4285C10.7539 17.3934 10.784 17.3551 10.8113 17.3152L18.5941 9.48435C18.8988 9.17927 18.8988 8.68474 18.5941 8.3793C18.2887 8.07422 17.7941 8.07422 17.4887 8.3793Z" fill="white"/>
</svg>
