<svg width="12" height="13" viewBox="0 0 12 13" fill="none" xmlns="http://www.w3.org/2000/svg">
<path d="M11.0919 6.43062C11.1064 6.43856 11.1101 6.44475 11.1118 6.44771C11.1148 6.45294 11.118 6.46224 11.1179 6.47468C11.1179 6.48712 11.1146 6.4964 11.1116 6.50161C11.1099 6.50456 11.1062 6.51072 11.0916 6.51855L0.832272 12.0268C0.819048 12.0339 0.811905 12.034 0.807905 12.0339C0.801737 12.0336 0.792623 12.0315 0.782789 12.0256C0.772956 12.0196 0.766844 12.0125 0.763739 12.0072C0.761725 12.0037 0.758506 11.9974 0.758621 11.9824L0.84396 0.91825C0.844075 0.903397 0.847352 0.897058 0.849441 0.893576C0.852622 0.88827 0.858795 0.88131 0.868612 0.875537C0.878428 0.869763 0.887512 0.867752 0.893695 0.86755C0.897754 0.867417 0.904887 0.867634 0.917924 0.874753L11.0919 6.43062Z" stroke="white" stroke-width="1.5"/>
</svg>
