<svg width="16" height="15" viewBox="0 0 16 15" fill="none" xmlns="http://www.w3.org/2000/svg">
<path d="M8 14.6673C11.866 14.6673 15 11.6078 15 7.83366C15 4.05953 11.866 1 8 1C4.134 1 1 4.05953 1 7.83366C1 11.6078 4.134 14.6673 8 14.6673Z" stroke="black" stroke-width="0.6" stroke-linecap="round" stroke-linejoin="round"/>
<path d="M1 7.83398H15" stroke="black" stroke-width="0.6" stroke-linecap="round" stroke-linejoin="round"/>
<path d="M7.99922 14.6673C9.54562 14.6673 10.7992 11.6078 10.7992 7.83366C10.7992 4.05953 9.54562 1 7.99922 1C6.45281 1 5.19922 4.05953 5.19922 7.83366C5.19922 11.6078 6.45281 14.6673 7.99922 14.6673Z" stroke="black" stroke-width="0.6" stroke-linecap="round" stroke-linejoin="round"/>
<path d="M3.05078 3.09766C4.31753 4.33431 6.06753 5.0992 8.00051 5.0992C9.93353 5.0992 11.6835 4.33431 12.9503 3.09766" stroke="black" stroke-width="0.6" stroke-linecap="round" stroke-linejoin="round"/>
<path d="M12.9503 12.568C11.6835 11.3313 9.93353 10.5664 8.00051 10.5664C6.06753 10.5664 4.31753 11.3313 3.05078 12.568" stroke="black" stroke-width="0.6" stroke-linecap="round" stroke-linejoin="round"/>
</svg>
