<svg width="15" height="15" viewBox="0 0 15 15" fill="none" xmlns="http://www.w3.org/2000/svg">
<path d="M14.85 7.33301C14.85 11.2969 11.5625 14.516 7.5 14.516C3.43751 14.516 0.15 11.2969 0.15 7.33301C0.15 3.36911 3.43751 0.15 7.5 0.15C11.5625 0.15 14.85 3.36911 14.85 7.33301Z" fill="#DB2E17" stroke="black" stroke-width="0.3"/>
<mask id="path-2-outside-1_513_1588" maskUnits="userSpaceOnUse" x="1" y="2.97852" width="7" height="7" fill="black">
<rect fill="white" x="1" y="2.97852" width="7" height="7"/>
<path d="M4.13281 6.58789L3.75391 7.83008C3.69922 8.00977 3.67188 8.12695 3.67188 8.18164C3.67188 8.42122 3.88411 8.54102 4.30859 8.54102L4.17578 8.97852H1.53516L1.66797 8.54102H1.75C1.89844 8.54102 2.02344 8.50716 2.125 8.43945C2.22917 8.37174 2.32552 8.19336 2.41406 7.9043L3.40234 4.67383C3.42839 4.58789 3.44141 4.52148 3.44141 4.47461C3.44141 4.23503 3.25521 4.11523 2.88281 4.11523L3.01562 3.68164H5.61719C6.34115 3.68164 6.85286 3.81055 7.15234 4.06836C7.45182 4.32357 7.60156 4.64388 7.60156 5.0293C7.60156 5.31315 7.52214 5.56185 7.36328 5.77539C7.20703 5.98633 6.99349 6.15299 6.72266 6.27539C6.45443 6.39518 6.14844 6.47461 5.80469 6.51367C6.00781 6.60742 6.20964 6.95638 6.41016 7.56055C6.55599 7.99544 6.69531 8.26758 6.82812 8.37695C6.96354 8.48633 7.13802 8.54102 7.35156 8.54102L7.21875 8.97852H5.66797C5.4987 8.73372 5.31901 8.30404 5.12891 7.68945C5.01693 7.32747 4.91927 7.07617 4.83594 6.93555C4.7526 6.79232 4.66536 6.69857 4.57422 6.6543C4.48568 6.61003 4.33854 6.58789 4.13281 6.58789ZM4.26172 6.16602C4.82682 6.16602 5.23438 6.12305 5.48438 6.03711C5.73438 5.95117 5.92839 5.80013 6.06641 5.58398C6.20443 5.36784 6.27344 5.14258 6.27344 4.9082C6.27344 4.63997 6.17969 4.43945 5.99219 4.30664C5.80729 4.17122 5.52865 4.10352 5.15625 4.10352C5.11719 4.10352 5.02734 4.10742 4.88672 4.11523L4.26172 6.16602Z"/>
</mask>
<path d="M4.13281 6.58789L3.75391 7.83008C3.69922 8.00977 3.67188 8.12695 3.67188 8.18164C3.67188 8.42122 3.88411 8.54102 4.30859 8.54102L4.17578 8.97852H1.53516L1.66797 8.54102H1.75C1.89844 8.54102 2.02344 8.50716 2.125 8.43945C2.22917 8.37174 2.32552 8.19336 2.41406 7.9043L3.40234 4.67383C3.42839 4.58789 3.44141 4.52148 3.44141 4.47461C3.44141 4.23503 3.25521 4.11523 2.88281 4.11523L3.01562 3.68164H5.61719C6.34115 3.68164 6.85286 3.81055 7.15234 4.06836C7.45182 4.32357 7.60156 4.64388 7.60156 5.0293C7.60156 5.31315 7.52214 5.56185 7.36328 5.77539C7.20703 5.98633 6.99349 6.15299 6.72266 6.27539C6.45443 6.39518 6.14844 6.47461 5.80469 6.51367C6.00781 6.60742 6.20964 6.95638 6.41016 7.56055C6.55599 7.99544 6.69531 8.26758 6.82812 8.37695C6.96354 8.48633 7.13802 8.54102 7.35156 8.54102L7.21875 8.97852H5.66797C5.4987 8.73372 5.31901 8.30404 5.12891 7.68945C5.01693 7.32747 4.91927 7.07617 4.83594 6.93555C4.7526 6.79232 4.66536 6.69857 4.57422 6.6543C4.48568 6.61003 4.33854 6.58789 4.13281 6.58789ZM4.26172 6.16602C4.82682 6.16602 5.23438 6.12305 5.48438 6.03711C5.73438 5.95117 5.92839 5.80013 6.06641 5.58398C6.20443 5.36784 6.27344 5.14258 6.27344 4.9082C6.27344 4.63997 6.17969 4.43945 5.99219 4.30664C5.80729 4.17122 5.52865 4.10352 5.15625 4.10352C5.11719 4.10352 5.02734 4.10742 4.88672 4.11523L4.26172 6.16602Z" fill="black"/>
<path d="M4.13281 6.58789V6.28789H3.91068L3.84587 6.50036L4.13281 6.58789ZM3.75391 7.83008L3.46696 7.74255L3.4669 7.74273L3.75391 7.83008ZM4.30859 8.54102L4.59566 8.62816L4.71318 8.24102H4.30859V8.54102ZM4.17578 8.97852V9.27852H4.39823L4.46285 9.06566L4.17578 8.97852ZM1.53516 8.97852L1.24809 8.89137L1.13057 9.27852H1.53516V8.97852ZM1.66797 8.54102V8.24102H1.44552L1.3809 8.45387L1.66797 8.54102ZM2.125 8.43945L1.96149 8.1879L1.95859 8.18984L2.125 8.43945ZM2.41406 7.9043L2.70091 7.99216L2.70094 7.99206L2.41406 7.9043ZM3.40234 4.67383L3.68922 4.76159L3.68945 4.76083L3.40234 4.67383ZM2.88281 4.11523L2.59597 4.02737L2.47716 4.41523H2.88281V4.11523ZM3.01562 3.68164V3.38164H2.79376L2.72878 3.59378L3.01562 3.68164ZM7.15234 4.06836L6.95662 4.29572L6.95776 4.2967L7.15234 4.06836ZM7.36328 5.77539L7.12258 5.59633L7.12221 5.59682L7.36328 5.77539ZM6.72266 6.27539L6.84499 6.54932L6.8462 6.54877L6.72266 6.27539ZM5.80469 6.51367L5.77081 6.21559L4.7053 6.33667L5.67897 6.78606L5.80469 6.51367ZM6.41016 7.56055L6.12543 7.65505L6.12572 7.65593L6.41016 7.56055ZM6.82812 8.37695L6.6374 8.60854L6.63962 8.61034L6.82812 8.37695ZM7.35156 8.54102L7.63863 8.62816L7.75615 8.24102H7.35156V8.54102ZM7.21875 8.97852V9.27852H7.4412L7.50581 9.06566L7.21875 8.97852ZM5.66797 8.97852L5.42122 9.14914L5.51068 9.27852H5.66797V8.97852ZM5.12891 7.68945L5.41551 7.6008L5.41551 7.60079L5.12891 7.68945ZM4.83594 6.93555L4.57662 7.08642L4.57785 7.08849L4.83594 6.93555ZM4.57422 6.6543L4.44005 6.92264L4.44315 6.92415L4.57422 6.6543ZM4.26172 6.16602L3.97475 6.07856L3.85667 6.46602H4.26172V6.16602ZM5.99219 4.30664L5.8149 4.5487L5.81878 4.55145L5.99219 4.30664ZM4.88672 4.11523L4.87008 3.8157L4.66084 3.82732L4.59975 4.02778L4.88672 4.11523ZM3.84587 6.50036L3.46696 7.74255L4.04085 7.91761L4.41976 6.67542L3.84587 6.50036ZM3.4669 7.74273C3.43857 7.83583 3.41599 7.91701 3.40023 7.98457C3.38603 8.04542 3.37188 8.11723 3.37188 8.18164H3.97187C3.97187 8.19136 3.97139 8.17724 3.98454 8.1209C3.99612 8.07127 4.01455 8.00402 4.04091 7.91743L3.4669 7.74273ZM3.37188 8.18164C3.37188 8.41196 3.48525 8.60048 3.6836 8.71243C3.8568 8.81019 4.07797 8.84102 4.30859 8.84102V8.24102C4.11474 8.24102 4.01755 8.21195 3.97851 8.18991C3.96354 8.18146 3.96554 8.17879 3.96999 8.18631C3.97458 8.19409 3.97187 8.19595 3.97187 8.18164H3.37188ZM4.02153 8.45387L3.88872 8.89137L4.46285 9.06566L4.59566 8.62816L4.02153 8.45387ZM4.17578 8.67852H1.53516V9.27852H4.17578V8.67852ZM1.82222 9.06566L1.95503 8.62816L1.3809 8.45387L1.24809 8.89137L1.82222 9.06566ZM1.66797 8.84102H1.75V8.24102H1.66797V8.84102ZM1.75 8.84102C1.94473 8.84102 2.13081 8.79614 2.29141 8.68907L1.95859 8.18984C1.91607 8.21819 1.85214 8.24102 1.75 8.24102V8.84102ZM2.2885 8.69099C2.40126 8.61769 2.48074 8.50595 2.53935 8.39746C2.60031 8.28459 2.65337 8.14737 2.70091 7.99216L2.12722 7.81643C2.08622 7.95028 2.04682 8.04679 2.01144 8.11231C1.97368 8.1822 1.95291 8.19351 1.9615 8.18792L2.2885 8.69099ZM2.70094 7.99206L3.68922 4.76159L3.11547 4.58607L2.12719 7.81653L2.70094 7.99206ZM3.68945 4.76083C3.71773 4.6675 3.74141 4.56681 3.74141 4.47461H3.14141C3.14141 4.47223 3.14152 4.48007 3.13725 4.50185C3.13318 4.52259 3.12622 4.55059 3.11524 4.58683L3.68945 4.76083ZM3.74141 4.47461C3.74141 4.26277 3.65107 4.07309 3.46407 3.95278C3.29975 3.84707 3.09156 3.81523 2.88281 3.81523V4.41523C3.04646 4.41523 3.11756 4.4433 3.13944 4.45737C3.14618 4.46171 3.14319 4.4613 3.14012 4.45539C3.13758 4.45048 3.14141 4.45395 3.14141 4.47461H3.74141ZM3.16966 4.2031L3.30247 3.7695L2.72878 3.59378L2.59597 4.02737L3.16966 4.2031ZM3.01562 3.98164H5.61719V3.38164H3.01562V3.98164ZM5.61719 3.98164C6.32233 3.98164 6.7415 4.11053 6.95662 4.29572L7.34807 3.841C6.96423 3.51057 6.35996 3.38164 5.61719 3.38164V3.98164ZM6.95776 4.2967C7.19196 4.49628 7.30156 4.73385 7.30156 5.0293H7.90156C7.90156 4.55391 7.71168 4.15086 7.34693 3.84002L6.95776 4.2967ZM7.30156 5.0293C7.30156 5.25321 7.24029 5.43809 7.12258 5.59633L7.60398 5.95445C7.80398 5.6856 7.90156 5.3731 7.90156 5.0293H7.30156ZM7.12221 5.59682C7.00026 5.76147 6.82959 5.89785 6.59911 6.00201L6.8462 6.54877C7.15739 6.40814 7.41381 6.21119 7.60435 5.95396L7.12221 5.59682ZM6.60032 6.00147C6.36464 6.10672 6.08929 6.1794 5.77081 6.21559L5.83856 6.81175C6.20758 6.76982 6.54421 6.68364 6.84499 6.54931L6.60032 6.00147ZM5.67897 6.78606C5.69483 6.79338 5.75708 6.83748 5.8487 6.9959C5.93529 7.14562 6.02836 7.36258 6.12543 7.65505L6.69488 7.46605C6.59143 7.15434 6.48333 6.89475 6.36809 6.69551C6.25789 6.50497 6.11767 6.32772 5.93041 6.24128L5.67897 6.78606ZM6.12572 7.65593C6.20129 7.88129 6.27803 8.07332 6.35699 8.22753C6.43305 8.37612 6.52365 8.51484 6.63741 8.60853L7.01884 8.14537C6.99979 8.12969 6.95432 8.07766 6.89106 7.95411C6.83069 7.83618 6.76485 7.6747 6.69459 7.46517L6.12572 7.65593ZM6.63962 8.61034C6.83967 8.77191 7.08545 8.84102 7.35156 8.84102V8.24102C7.19059 8.24102 7.08741 8.20074 7.01663 8.14357L6.63962 8.61034ZM7.0645 8.45387L6.93169 8.89137L7.50581 9.06566L7.63863 8.62816L7.0645 8.45387ZM7.21875 8.67852H5.66797V9.27852H7.21875V8.67852ZM5.91472 8.80789C5.77343 8.60355 5.60456 8.21199 5.41551 7.6008L4.8423 7.77811C5.03346 8.39609 5.22397 8.86389 5.42122 9.14914L5.91472 8.80789ZM5.41551 7.60079C5.30326 7.23794 5.19706 6.95647 5.09403 6.78261L4.57785 7.08849C4.64149 7.19587 4.7306 7.41701 4.84231 7.77811L5.41551 7.60079ZM5.09524 6.78468C4.9992 6.61961 4.8743 6.46653 4.70529 6.38444L4.44315 6.92415C4.45643 6.9306 4.50601 6.96503 4.57663 7.08641L5.09524 6.78468ZM4.70838 6.38597C4.55319 6.30837 4.34532 6.28789 4.13281 6.28789V6.88789C4.33176 6.88789 4.41817 6.91168 4.44005 6.92263L4.70838 6.38597ZM4.26172 6.46602C4.83104 6.46602 5.28153 6.42407 5.5819 6.32082L5.38685 5.7534C5.18722 5.82203 4.8226 5.86602 4.26172 5.86602V6.46602ZM5.5819 6.32082C5.89386 6.21358 6.14356 6.02059 6.31925 5.74544L5.81356 5.42253C5.71321 5.57967 5.57489 5.68876 5.38685 5.7534L5.5819 6.32082ZM6.31925 5.74544C6.48505 5.48579 6.57344 5.20514 6.57344 4.9082H5.97344C5.97344 5.08001 5.9238 5.24989 5.81356 5.42253L6.31925 5.74544ZM6.57344 4.9082C6.57344 4.56133 6.44659 4.26087 6.16559 4.06183L5.81878 4.55145C5.91278 4.61803 5.97344 4.71862 5.97344 4.9082H6.57344ZM6.16945 4.06461C5.9099 3.87452 5.55584 3.80352 5.15625 3.80352V4.40352C5.50145 4.40352 5.70468 4.46793 5.81493 4.54867L6.16945 4.06461ZM5.15625 3.80352C5.10713 3.80352 5.0082 3.80802 4.87008 3.8157L4.90336 4.41477C5.04649 4.40682 5.12724 4.40352 5.15625 4.40352V3.80352ZM4.59975 4.02778L3.97475 6.07856L4.54869 6.25347L5.17369 4.20269L4.59975 4.02778Z" fill="black" mask="url(#path-2-outside-1_513_1588)"/>
<mask id="path-4-outside-2_513_1588" maskUnits="userSpaceOnUse" x="6" y="5.91016" width="7" height="7" fill="black">
<rect fill="white" x="6" y="5.91016" width="7" height="7"/>
<path d="M9.13281 9.51953L8.75391 10.7617C8.69922 10.9414 8.67188 11.0586 8.67188 11.1133C8.67188 11.3529 8.88411 11.4727 9.30859 11.4727L9.17578 11.9102H6.53516L6.66797 11.4727H6.75C6.89844 11.4727 7.02344 11.4388 7.125 11.3711C7.22917 11.3034 7.32552 11.125 7.41406 10.8359L8.40234 7.60547C8.42839 7.51953 8.44141 7.45312 8.44141 7.40625C8.44141 7.16667 8.25521 7.04688 7.88281 7.04688L8.01562 6.61328H10.6172C11.3411 6.61328 11.8529 6.74219 12.1523 7C12.4518 7.25521 12.6016 7.57552 12.6016 7.96094C12.6016 8.24479 12.5221 8.49349 12.3633 8.70703C12.207 8.91797 11.9935 9.08464 11.7227 9.20703C11.4544 9.32682 11.1484 9.40625 10.8047 9.44531C11.0078 9.53906 11.2096 9.88802 11.4102 10.4922C11.556 10.9271 11.6953 11.1992 11.8281 11.3086C11.9635 11.418 12.138 11.4727 12.3516 11.4727L12.2188 11.9102H10.668C10.4987 11.6654 10.319 11.2357 10.1289 10.6211C10.0169 10.2591 9.91927 10.0078 9.83594 9.86719C9.7526 9.72396 9.66536 9.63021 9.57422 9.58594C9.48568 9.54167 9.33854 9.51953 9.13281 9.51953ZM9.26172 9.09766C9.82682 9.09766 10.2344 9.05469 10.4844 8.96875C10.7344 8.88281 10.9284 8.73177 11.0664 8.51562C11.2044 8.29948 11.2734 8.07422 11.2734 7.83984C11.2734 7.57161 11.1797 7.37109 10.9922 7.23828C10.8073 7.10286 10.5286 7.03516 10.1562 7.03516C10.1172 7.03516 10.0273 7.03906 9.88672 7.04688L9.26172 9.09766Z"/>
</mask>
<path d="M9.13281 9.51953L8.75391 10.7617C8.69922 10.9414 8.67188 11.0586 8.67188 11.1133C8.67188 11.3529 8.88411 11.4727 9.30859 11.4727L9.17578 11.9102H6.53516L6.66797 11.4727H6.75C6.89844 11.4727 7.02344 11.4388 7.125 11.3711C7.22917 11.3034 7.32552 11.125 7.41406 10.8359L8.40234 7.60547C8.42839 7.51953 8.44141 7.45312 8.44141 7.40625C8.44141 7.16667 8.25521 7.04688 7.88281 7.04688L8.01562 6.61328H10.6172C11.3411 6.61328 11.8529 6.74219 12.1523 7C12.4518 7.25521 12.6016 7.57552 12.6016 7.96094C12.6016 8.24479 12.5221 8.49349 12.3633 8.70703C12.207 8.91797 11.9935 9.08464 11.7227 9.20703C11.4544 9.32682 11.1484 9.40625 10.8047 9.44531C11.0078 9.53906 11.2096 9.88802 11.4102 10.4922C11.556 10.9271 11.6953 11.1992 11.8281 11.3086C11.9635 11.418 12.138 11.4727 12.3516 11.4727L12.2188 11.9102H10.668C10.4987 11.6654 10.319 11.2357 10.1289 10.6211C10.0169 10.2591 9.91927 10.0078 9.83594 9.86719C9.7526 9.72396 9.66536 9.63021 9.57422 9.58594C9.48568 9.54167 9.33854 9.51953 9.13281 9.51953ZM9.26172 9.09766C9.82682 9.09766 10.2344 9.05469 10.4844 8.96875C10.7344 8.88281 10.9284 8.73177 11.0664 8.51562C11.2044 8.29948 11.2734 8.07422 11.2734 7.83984C11.2734 7.57161 11.1797 7.37109 10.9922 7.23828C10.8073 7.10286 10.5286 7.03516 10.1562 7.03516C10.1172 7.03516 10.0273 7.03906 9.88672 7.04688L9.26172 9.09766Z" fill="white"/>
<path d="M9.13281 9.51953V9.21953H8.91068L8.84587 9.432L9.13281 9.51953ZM8.75391 10.7617L8.46696 10.6742L8.4669 10.6744L8.75391 10.7617ZM9.30859 11.4727L9.59566 11.5598L9.71318 11.1727H9.30859V11.4727ZM9.17578 11.9102V12.2102H9.39823L9.46285 11.9973L9.17578 11.9102ZM6.53516 11.9102L6.24809 11.823L6.13057 12.2102H6.53516V11.9102ZM6.66797 11.4727V11.1727H6.44552L6.3809 11.3855L6.66797 11.4727ZM7.125 11.3711L6.96149 11.1195L6.95859 11.1215L7.125 11.3711ZM7.41406 10.8359L7.70091 10.9238L7.70094 10.9237L7.41406 10.8359ZM8.40234 7.60547L8.68922 7.69323L8.68945 7.69247L8.40234 7.60547ZM7.88281 7.04688L7.59597 6.95901L7.47716 7.34687H7.88281V7.04688ZM8.01562 6.61328V6.31328H7.79376L7.72878 6.52542L8.01562 6.61328ZM12.1523 7L11.9566 7.22736L11.9578 7.22834L12.1523 7ZM12.3633 8.70703L12.1226 8.52797L12.1222 8.52846L12.3633 8.70703ZM11.7227 9.20703L11.845 9.48096L11.8462 9.48041L11.7227 9.20703ZM10.8047 9.44531L10.7708 9.14723L9.7053 9.26831L10.679 9.7177L10.8047 9.44531ZM11.4102 10.4922L11.1254 10.5867L11.1257 10.5876L11.4102 10.4922ZM11.8281 11.3086L11.6374 11.5402L11.6396 11.542L11.8281 11.3086ZM12.3516 11.4727L12.6386 11.5598L12.7562 11.1727H12.3516V11.4727ZM12.2188 11.9102V12.2102H12.4412L12.5058 11.9973L12.2188 11.9102ZM10.668 11.9102L10.4212 12.0808L10.5107 12.2102H10.668V11.9102ZM10.1289 10.6211L10.4155 10.5324L10.4155 10.5324L10.1289 10.6211ZM9.83594 9.86719L9.57662 10.0181L9.57785 10.0201L9.83594 9.86719ZM9.57422 9.58594L9.44005 9.85428L9.44315 9.85579L9.57422 9.58594ZM9.26172 9.09766L8.97475 9.0102L8.85667 9.39766H9.26172V9.09766ZM10.9922 7.23828L10.8149 7.48034L10.8188 7.48309L10.9922 7.23828ZM9.88672 7.04688L9.87008 6.74734L9.66084 6.75896L9.59975 6.95942L9.88672 7.04688ZM8.84587 9.432L8.46696 10.6742L9.04085 10.8492L9.41976 9.60706L8.84587 9.432ZM8.4669 10.6744C8.43857 10.7675 8.41599 10.8486 8.40023 10.9162C8.38603 10.9771 8.37188 11.0489 8.37188 11.1133H8.97187C8.97187 11.123 8.97139 11.1089 8.98454 11.0525C8.99612 11.0029 9.01455 10.9357 9.04091 10.8491L8.4669 10.6744ZM8.37188 11.1133C8.37188 11.3436 8.48525 11.5321 8.6836 11.6441C8.8568 11.7418 9.07797 11.7727 9.30859 11.7727V11.1727C9.11474 11.1727 9.01755 11.1436 8.97851 11.1216C8.96354 11.1131 8.96554 11.1104 8.96999 11.118C8.97458 11.1257 8.97187 11.1276 8.97187 11.1133H8.37188ZM9.02153 11.3855L8.88872 11.823L9.46285 11.9973L9.59566 11.5598L9.02153 11.3855ZM9.17578 11.6102H6.53516V12.2102H9.17578V11.6102ZM6.82222 11.9973L6.95503 11.5598L6.3809 11.3855L6.24809 11.823L6.82222 11.9973ZM6.66797 11.7727H6.75V11.1727H6.66797V11.7727ZM6.75 11.7727C6.94473 11.7727 7.13081 11.7278 7.29141 11.6207L6.95859 11.1215C6.91607 11.1498 6.85214 11.1727 6.75 11.1727V11.7727ZM7.2885 11.6226C7.40126 11.5493 7.48074 11.4376 7.53935 11.3291C7.60031 11.2162 7.65337 11.079 7.70091 10.9238L7.12722 10.7481C7.08622 10.8819 7.04682 10.9784 7.01144 11.0439C6.97368 11.1138 6.95291 11.1251 6.9615 11.1196L7.2885 11.6226ZM7.70094 10.9237L8.68922 7.69323L8.11547 7.51771L7.12719 10.7482L7.70094 10.9237ZM8.68945 7.69247C8.71773 7.59914 8.74141 7.49845 8.74141 7.40625H8.14141C8.14141 7.40387 8.14152 7.41172 8.13725 7.43349C8.13318 7.45423 8.12622 7.48223 8.11524 7.51847L8.68945 7.69247ZM8.74141 7.40625C8.74141 7.19441 8.65107 7.00473 8.46407 6.88442C8.29975 6.77871 8.09156 6.74688 7.88281 6.74688V7.34687C8.04646 7.34687 8.11756 7.37494 8.13944 7.38901C8.14618 7.39335 8.14319 7.39294 8.14012 7.38703C8.13758 7.38213 8.14141 7.38559 8.14141 7.40625H8.74141ZM8.16966 7.13474L8.30247 6.70114L7.72878 6.52542L7.59597 6.95901L8.16966 7.13474ZM8.01562 6.91328H10.6172V6.31328H8.01562V6.91328ZM10.6172 6.91328C11.3223 6.91328 11.7415 7.04217 11.9566 7.22736L12.3481 6.77264C11.9642 6.44221 11.36 6.31328 10.6172 6.31328V6.91328ZM11.9578 7.22834C12.192 7.42792 12.3016 7.66549 12.3016 7.96094H12.9016C12.9016 7.48555 12.7117 7.0825 12.3469 6.77166L11.9578 7.22834ZM12.3016 7.96094C12.3016 8.18485 12.2403 8.36973 12.1226 8.52797L12.604 8.88609C12.804 8.61724 12.9016 8.30474 12.9016 7.96094H12.3016ZM12.1222 8.52846C12.0003 8.69311 11.8296 8.82949 11.5991 8.93365L11.8462 9.48041C12.1574 9.33978 12.4138 9.14283 12.6043 8.8856L12.1222 8.52846ZM11.6003 8.93311C11.3646 9.03836 11.0893 9.11104 10.7708 9.14723L10.8386 9.74339C11.2076 9.70146 11.5442 9.61528 11.845 9.48096L11.6003 8.93311ZM10.679 9.7177C10.6948 9.72502 10.7571 9.76912 10.8487 9.92754C10.9353 10.0773 11.0284 10.2942 11.1254 10.5867L11.6949 10.3977C11.5914 10.086 11.4833 9.82639 11.3681 9.62715C11.2579 9.43661 11.1177 9.25936 10.9304 9.17292L10.679 9.7177ZM11.1257 10.5876C11.2013 10.8129 11.278 11.005 11.357 11.1592C11.4331 11.3078 11.5236 11.4465 11.6374 11.5402L12.0188 11.077C11.9998 11.0613 11.9543 11.0093 11.8911 10.8857C11.8307 10.7678 11.7649 10.6063 11.6946 10.3968L11.1257 10.5876ZM11.6396 11.542C11.8397 11.7036 12.0855 11.7727 12.3516 11.7727V11.1727C12.1906 11.1727 12.0874 11.1324 12.0166 11.0752L11.6396 11.542ZM12.0645 11.3855L11.9317 11.823L12.5058 11.9973L12.6386 11.5598L12.0645 11.3855ZM12.2188 11.6102H10.668V12.2102H12.2188V11.6102ZM10.9147 11.7395C10.7734 11.5352 10.6046 11.1436 10.4155 10.5324L9.8423 10.7097C10.0335 11.3277 10.224 11.7955 10.4212 12.0808L10.9147 11.7395ZM10.4155 10.5324C10.3033 10.1696 10.1971 9.88811 10.094 9.71425L9.57785 10.0201C9.64149 10.1275 9.7306 10.3487 9.84231 10.7098L10.4155 10.5324ZM10.0952 9.71632C9.9992 9.55125 9.8743 9.39817 9.70529 9.31608L9.44315 9.85579C9.45643 9.86224 9.50601 9.89667 9.57663 10.0181L10.0952 9.71632ZM9.70838 9.31761C9.55319 9.24001 9.34532 9.21953 9.13281 9.21953V9.81953C9.33176 9.81953 9.41817 9.84332 9.44005 9.85427L9.70838 9.31761ZM9.26172 9.39766C9.83104 9.39766 10.2815 9.35571 10.5819 9.25246L10.3869 8.68504C10.1872 8.75367 9.8226 8.79766 9.26172 8.79766V9.39766ZM10.5819 9.25246C10.8939 9.14522 11.1436 8.95223 11.3193 8.67708L10.8136 8.35417C10.7132 8.51131 10.5749 8.62041 10.3869 8.68504L10.5819 9.25246ZM11.3193 8.67708C11.4851 8.41743 11.5734 8.13678 11.5734 7.83984H10.9734C10.9734 8.01165 10.9238 8.18153 10.8136 8.35417L11.3193 8.67708ZM11.5734 7.83984C11.5734 7.49297 11.4466 7.19251 11.1656 6.99347L10.8188 7.48309C10.9128 7.54967 10.9734 7.65026 10.9734 7.83984H11.5734ZM11.1694 6.99625C10.9099 6.80616 10.5558 6.73516 10.1562 6.73516V7.33516C10.5014 7.33516 10.7047 7.39957 10.8149 7.48031L11.1694 6.99625ZM10.1562 6.73516C10.1071 6.73516 10.0082 6.73966 9.87008 6.74734L9.90336 7.34641C10.0465 7.33846 10.1272 7.33516 10.1562 7.33516V6.73516ZM9.59975 6.95942L8.97475 9.0102L9.54869 9.18511L10.1737 7.13433L9.59975 6.95942Z" fill="black" mask="url(#path-4-outside-2_513_1588)"/>
</svg>
